<svg xmlns="http://www.w3.org/2000/svg" xmlns:xlink="http://www.w3.org/1999/xlink" width="500" zoomAndPan="magnify" viewBox="0 0 375 374.999991" height="500" preserveAspectRatio="xMidYMid meet" version="1.0"><defs><clipPath id="id1"><path d="M 169 149 L 214 149 L 214 207 L 169 207 Z M 169 149 " clip-rule="nonzero"/></clipPath><clipPath id="id2"><path d="M 158.613281 140.035156 L 235.128906 158.652344 L 216.511719 235.171875 L 139.996094 216.554688 Z M 158.613281 140.035156 " clip-rule="nonzero"/></clipPath><clipPath id="id3"><path d="M 158.613281 140.035156 L 235.128906 158.652344 L 216.511719 235.171875 L 139.996094 216.554688 Z M 158.613281 140.035156 " clip-rule="nonzero"/></clipPath><clipPath id="id4"><path d="M 189 154 L 208 154 L 208 169 L 189 169 Z M 189 154 " clip-rule="nonzero"/></clipPath><clipPath id="id5"><path d="M 158.613281 140.035156 L 235.128906 158.652344 L 216.511719 235.171875 L 139.996094 216.554688 Z M 158.613281 140.035156 " clip-rule="nonzero"/></clipPath><clipPath id="id6"><path d="M 158.613281 140.035156 L 235.128906 158.652344 L 216.511719 235.171875 L 139.996094 216.554688 Z M 158.613281 140.035156 " clip-rule="nonzero"/></clipPath><clipPath id="id7"><path d="M 205 170 L 209 170 L 209 174 L 205 174 Z M 205 170 " clip-rule="nonzero"/></clipPath><clipPath id="id8"><path d="M 158.613281 140.035156 L 235.128906 158.652344 L 216.511719 235.171875 L 139.996094 216.554688 Z M 158.613281 140.035156 " clip-rule="nonzero"/></clipPath><clipPath id="id9"><path d="M 158.613281 140.035156 L 235.128906 158.652344 L 216.511719 235.171875 L 139.996094 216.554688 Z M 158.613281 140.035156 " clip-rule="nonzero"/></clipPath><clipPath id="id10"><path d="M 173 204 L 193 204 L 193 212 L 173 212 Z M 173 204 " clip-rule="nonzero"/></clipPath><clipPath id="id11"><path d="M 158.613281 140.035156 L 235.128906 158.652344 L 216.511719 235.171875 L 139.996094 216.554688 Z M 158.613281 140.035156 " clip-rule="nonzero"/></clipPath><clipPath id="id12"><path d="M 158.613281 140.035156 L 235.128906 158.652344 L 216.511719 235.171875 L 139.996094 216.554688 Z M 158.613281 140.035156 " clip-rule="nonzero"/></clipPath><clipPath id="id13"><path d="M 171 210 L 191 210 L 191 217 L 171 217 Z M 171 210 " clip-rule="nonzero"/></clipPath><clipPath id="id14"><path d="M 158.613281 140.035156 L 235.128906 158.652344 L 216.511719 235.171875 L 139.996094 216.554688 Z M 158.613281 140.035156 " clip-rule="nonzero"/></clipPath><clipPath id="id15"><path d="M 158.613281 140.035156 L 235.128906 158.652344 L 216.511719 235.171875 L 139.996094 216.554688 Z M 158.613281 140.035156 " clip-rule="nonzero"/></clipPath><clipPath id="id16"><path d="M 170 215 L 190 215 L 190 226 L 170 226 Z M 170 215 " clip-rule="nonzero"/></clipPath><clipPath id="id17"><path d="M 158.613281 140.035156 L 235.128906 158.652344 L 216.511719 235.171875 L 139.996094 216.554688 Z M 158.613281 140.035156 " clip-rule="nonzero"/></clipPath><clipPath id="id18"><path d="M 158.613281 140.035156 L 235.128906 158.652344 L 216.511719 235.171875 L 139.996094 216.554688 Z M 158.613281 140.035156 " clip-rule="nonzero"/></clipPath><clipPath id="id19"><path d="M 219 174 L 231 174 L 231 180 L 219 180 Z M 219 174 " clip-rule="nonzero"/></clipPath><clipPath id="id20"><path d="M 158.613281 140.035156 L 235.128906 158.652344 L 216.511719 235.171875 L 139.996094 216.554688 Z M 158.613281 140.035156 " clip-rule="nonzero"/></clipPath><clipPath id="id21"><path d="M 158.613281 140.035156 L 235.128906 158.652344 L 216.511719 235.171875 L 139.996094 216.554688 Z M 158.613281 140.035156 " clip-rule="nonzero"/></clipPath><clipPath id="id22"><path d="M 217 182 L 228 182 L 228 192 L 217 192 Z M 217 182 " clip-rule="nonzero"/></clipPath><clipPath id="id23"><path d="M 158.613281 140.035156 L 235.128906 158.652344 L 216.511719 235.171875 L 139.996094 216.554688 Z M 158.613281 140.035156 " clip-rule="nonzero"/></clipPath><clipPath id="id24"><path d="M 158.613281 140.035156 L 235.128906 158.652344 L 216.511719 235.171875 L 139.996094 216.554688 Z M 158.613281 140.035156 " clip-rule="nonzero"/></clipPath><clipPath id="id25"><path d="M 221 163 L 234 163 L 234 169 L 221 169 Z M 221 163 " clip-rule="nonzero"/></clipPath><clipPath id="id26"><path d="M 158.613281 140.035156 L 235.128906 158.652344 L 216.511719 235.171875 L 139.996094 216.554688 Z M 158.613281 140.035156 " clip-rule="nonzero"/></clipPath><clipPath id="id27"><path d="M 158.613281 140.035156 L 235.128906 158.652344 L 216.511719 235.171875 L 139.996094 216.554688 Z M 158.613281 140.035156 " clip-rule="nonzero"/></clipPath><clipPath id="id28"><path d="M 154 158 L 166 158 L 166 164 L 154 164 Z M 154 158 " clip-rule="nonzero"/></clipPath><clipPath id="id29"><path d="M 158.613281 140.035156 L 235.128906 158.652344 L 216.511719 235.171875 L 139.996094 216.554688 Z M 158.613281 140.035156 " clip-rule="nonzero"/></clipPath><clipPath id="id30"><path d="M 158.613281 140.035156 L 235.128906 158.652344 L 216.511719 235.171875 L 139.996094 216.554688 Z M 158.613281 140.035156 " clip-rule="nonzero"/></clipPath><clipPath id="id31"><path d="M 151 168 L 164 168 L 164 174 L 151 174 Z M 151 168 " clip-rule="nonzero"/></clipPath><clipPath id="id32"><path d="M 158.613281 140.035156 L 235.128906 158.652344 L 216.511719 235.171875 L 139.996094 216.554688 Z M 158.613281 140.035156 " clip-rule="nonzero"/></clipPath><clipPath id="id33"><path d="M 158.613281 140.035156 L 235.128906 158.652344 L 216.511719 235.171875 L 139.996094 216.554688 Z M 158.613281 140.035156 " clip-rule="nonzero"/></clipPath><clipPath id="id34"><path d="M 157 146 L 167 146 L 167 155 L 157 155 Z M 157 146 " clip-rule="nonzero"/></clipPath><clipPath id="id35"><path d="M 158.613281 140.035156 L 235.128906 158.652344 L 216.511719 235.171875 L 139.996094 216.554688 Z M 158.613281 140.035156 " clip-rule="nonzero"/></clipPath><clipPath id="id36"><path d="M 158.613281 140.035156 L 235.128906 158.652344 L 216.511719 235.171875 L 139.996094 216.554688 Z M 158.613281 140.035156 " clip-rule="nonzero"/></clipPath></defs><g clip-path="url(#id1)"><g clip-path="url(#id2)"><g clip-path="url(#id3)"><path fill="#ff914d" d="M 194.253906 177.847656 L 194.585938 176.488281 C 194.769531 175.738281 195.527344 175.277344 196.277344 175.460938 C 197.027344 175.640625 197.488281 176.398438 197.304688 177.148438 C 197.125 177.898438 196.367188 178.363281 195.613281 178.179688 Z M 204.765625 185.824219 C 201.886719 188.472656 199.199219 191.679688 196.308594 195.921875 L 191.4375 203.082031 L 188.300781 202.320312 L 193.59375 180.566406 L 194.953125 180.898438 C 197.203125 181.445312 199.476562 180.058594 200.023438 177.8125 C 200.570312 175.5625 199.1875 173.289062 196.9375 172.742188 C 194.691406 172.195312 192.414062 173.578125 191.867188 175.828125 L 191.535156 177.1875 L 188.816406 176.523438 L 189.148438 175.164062 C 189.695312 172.917969 188.3125 170.640625 186.0625 170.09375 C 183.8125 169.546875 181.539062 170.933594 180.992188 173.179688 C 180.445312 175.429688 181.828125 177.703125 184.078125 178.253906 L 185.4375 178.582031 L 180.144531 200.335938 L 177.007812 199.570312 L 175.960938 190.898438 C 175.46875 186.828125 174.5 182.628906 172.8125 177.28125 C 171.734375 173.859375 171.621094 170.203125 172.488281 166.703125 C 174.957031 156.730469 185.164062 150.21875 195.234375 152.1875 C 200.566406 153.230469 205.082031 156.304688 207.996094 160.851562 C 210.910156 165.402344 211.8125 170.800781 210.535156 176.046875 C 209.617188 179.824219 207.621094 183.203125 204.765625 185.824219 Z M 182.863281 200.996094 L 188.15625 179.246094 L 190.875 179.90625 L 185.582031 201.65625 Z M 186.097656 175.863281 L 184.738281 175.53125 C 183.988281 175.351562 183.527344 174.59375 183.710938 173.84375 C 183.894531 173.09375 184.652344 172.632812 185.402344 172.8125 C 186.152344 172.996094 186.613281 173.753906 186.429688 174.503906 Z M 195.769531 149.441406 C 184.257812 147.191406 172.59375 154.632812 169.769531 166.03125 C 168.78125 170.03125 168.910156 174.210938 170.140625 178.121094 C 171.777344 183.296875 172.710938 187.339844 173.183594 191.234375 L 174.34375 200.871094 C 174.414062 201.449219 174.835938 201.921875 175.40625 202.0625 L 191.71875 206.03125 C 192.285156 206.167969 192.878906 205.941406 193.207031 205.457031 L 198.621094 197.5 C 201.386719 193.4375 203.941406 190.382812 206.660156 187.886719 C 209.921875 184.890625 212.203125 181.023438 213.253906 176.710938 C 214.710938 170.710938 213.683594 164.542969 210.351562 159.34375 C 207.023438 154.144531 201.851562 150.632812 195.769531 149.441406 " fill-opacity="1" fill-rule="nonzero"/></g></g></g><g clip-path="url(#id4)"><g clip-path="url(#id5)"><g clip-path="url(#id6)"><path fill="#ff914d" d="M 194.703125 154.933594 C 192.894531 154.582031 191.054688 154.539062 189.226562 154.800781 L 189.628906 157.570312 C 191.140625 157.351562 192.667969 157.390625 194.167969 157.679688 C 199.574219 158.746094 203.855469 162.882812 205.113281 168.25 L 207.839844 167.609375 C 206.328125 161.175781 201.175781 156.214844 194.703125 154.933594 " fill-opacity="1" fill-rule="nonzero"/></g></g></g><g clip-path="url(#id7)"><g clip-path="url(#id8)"><g clip-path="url(#id9)"><path fill="#ff914d" d="M 205.324219 173.535156 L 208.09375 173.953125 C 208.25 172.90625 208.308594 171.835938 208.269531 170.773438 L 205.472656 170.882812 C 205.503906 171.769531 205.457031 172.664062 205.324219 173.535156 " fill-opacity="1" fill-rule="nonzero"/></g></g></g><g clip-path="url(#id10)"><g clip-path="url(#id11)"><g clip-path="url(#id12)"><path fill="#ff914d" d="M 191.058594 208.75 L 174.742188 204.78125 C 173.992188 204.597656 173.234375 205.058594 173.054688 205.808594 C 172.871094 206.5625 173.332031 207.316406 174.082031 207.5 L 190.394531 211.46875 C 191.148438 211.652344 191.902344 211.191406 192.085938 210.441406 C 192.269531 209.6875 191.808594 208.933594 191.058594 208.75 " fill-opacity="1" fill-rule="nonzero"/></g></g></g><g clip-path="url(#id13)"><g clip-path="url(#id14)"><g clip-path="url(#id15)"><path fill="#ff914d" d="M 189.734375 214.1875 L 173.421875 210.21875 C 172.667969 210.035156 171.914062 210.496094 171.730469 211.246094 C 171.546875 212 172.007812 212.753906 172.757812 212.9375 L 189.074219 216.90625 C 189.824219 217.089844 190.578125 216.628906 190.761719 215.878906 C 190.945312 215.128906 190.484375 214.371094 189.734375 214.1875 " fill-opacity="1" fill-rule="nonzero"/></g></g></g><g clip-path="url(#id16)"><g clip-path="url(#id17)"><g clip-path="url(#id18)"><path fill="#ff914d" d="M 178.929688 223.078125 C 177.160156 222.648438 175.941406 221.144531 175.765625 219.429688 L 183.421875 221.292969 C 182.472656 222.734375 180.699219 223.511719 178.929688 223.078125 Z M 188.410156 219.625 L 172.097656 215.65625 C 171.34375 215.472656 170.589844 215.933594 170.40625 216.683594 C 170.222656 217.4375 170.683594 218.191406 171.433594 218.375 L 172.933594 218.738281 C 172.808594 221.992188 174.988281 225 178.269531 225.796875 C 181.550781 226.597656 184.867188 224.925781 186.253906 221.980469 L 187.75 222.34375 C 188.5 222.527344 189.257812 222.066406 189.441406 221.316406 C 189.621094 220.566406 189.164062 219.808594 188.410156 219.625 " fill-opacity="1" fill-rule="nonzero"/></g></g></g><g clip-path="url(#id19)"><g clip-path="url(#id20)"><g clip-path="url(#id21)"><path fill="#ff914d" d="M 229.199219 176.269531 L 221.042969 174.285156 C 220.292969 174.101562 219.535156 174.5625 219.351562 175.316406 C 219.167969 176.066406 219.628906 176.820312 220.382812 177.003906 L 228.539062 178.988281 C 229.289062 179.171875 230.046875 178.710938 230.230469 177.960938 C 230.410156 177.210938 229.953125 176.453125 229.199219 176.269531 " fill-opacity="1" fill-rule="nonzero"/></g></g></g><g clip-path="url(#id22)"><g clip-path="url(#id23)"><g clip-path="url(#id24)"><path fill="#ff914d" d="M 226.796875 188.796875 L 219.632812 182.734375 C 219.039062 182.238281 218.160156 182.308594 217.660156 182.898438 C 217.160156 183.488281 217.234375 184.371094 217.824219 184.871094 L 224.988281 190.933594 C 225.160156 191.078125 225.355469 191.175781 225.558594 191.226562 C 226.058594 191.347656 226.605469 191.1875 226.960938 190.769531 C 227.460938 190.179688 227.386719 189.296875 226.796875 188.796875 " fill-opacity="1" fill-rule="nonzero"/></g></g></g><g clip-path="url(#id25)"><g clip-path="url(#id26)"><g clip-path="url(#id27)"><path fill="#ff914d" d="M 221.332031 167.800781 C 221.457031 168.335938 221.867188 168.726562 222.367188 168.847656 C 222.570312 168.898438 222.789062 168.902344 223.007812 168.851562 L 232.160156 166.757812 C 232.910156 166.585938 233.382812 165.835938 233.210938 165.082031 C 233.035156 164.328125 232.285156 163.859375 231.535156 164.03125 L 222.382812 166.125 C 221.628906 166.296875 221.160156 167.046875 221.332031 167.800781 " fill-opacity="1" fill-rule="nonzero"/></g></g></g><g clip-path="url(#id28)"><g clip-path="url(#id29)"><g clip-path="url(#id30)"><path fill="#ff914d" d="M 163.941406 160.394531 L 155.785156 158.40625 C 155.035156 158.226562 154.277344 158.683594 154.09375 159.4375 C 153.914062 160.1875 154.371094 160.945312 155.125 161.128906 L 163.28125 163.113281 C 164.03125 163.292969 164.789062 162.835938 164.972656 162.082031 C 165.15625 161.332031 164.695312 160.574219 163.941406 160.394531 " fill-opacity="1" fill-rule="nonzero"/></g></g></g><g clip-path="url(#id31)"><g clip-path="url(#id32)"><g clip-path="url(#id33)"><path fill="#ff914d" d="M 161.316406 168.546875 L 152.164062 170.640625 C 151.410156 170.8125 150.941406 171.5625 151.113281 172.316406 C 151.238281 172.851562 151.648438 173.242188 152.148438 173.363281 C 152.351562 173.414062 152.570312 173.417969 152.789062 173.367188 L 161.941406 171.273438 C 162.691406 171.101562 163.164062 170.351562 162.992188 169.597656 C 162.816406 168.84375 162.070312 168.375 161.316406 168.546875 " fill-opacity="1" fill-rule="nonzero"/></g></g></g><g clip-path="url(#id34)"><g clip-path="url(#id35)"><g clip-path="url(#id36)"><path fill="#ff914d" d="M 164.691406 154.664062 C 164.863281 154.808594 165.058594 154.90625 165.265625 154.953125 C 165.761719 155.074219 166.308594 154.917969 166.664062 154.5 C 167.164062 153.910156 167.089844 153.027344 166.5 152.527344 L 159.335938 146.464844 C 158.746094 145.964844 157.863281 146.039062 157.363281 146.628906 C 156.863281 147.21875 156.9375 148.101562 157.527344 148.597656 L 164.691406 154.664062 " fill-opacity="1" fill-rule="nonzero"/></g></g></g></svg>