<svg xmlns="http://www.w3.org/2000/svg" xmlns:xlink="http://www.w3.org/1999/xlink" width="500" zoomAndPan="magnify" viewBox="0 0 375 374.999991" height="500" preserveAspectRatio="xMidYMid meet" version="1.0"><defs><g/><clipPath id="id1"><path d="M 229 157 L 264 157 L 264 202 L 229 202 Z M 229 157 " clip-rule="nonzero"/></clipPath><clipPath id="id2"><path d="M 221.011719 151.085938 L 279.308594 165.273438 L 265.125 223.570312 L 206.828125 209.386719 Z M 221.011719 151.085938 " clip-rule="nonzero"/></clipPath><clipPath id="id3"><path d="M 221.011719 151.085938 L 279.308594 165.273438 L 265.125 223.570312 L 206.828125 209.386719 Z M 221.011719 151.085938 " clip-rule="nonzero"/></clipPath><clipPath id="id4"><path d="M 244 162 L 259 162 L 259 173 L 244 173 Z M 244 162 " clip-rule="nonzero"/></clipPath><clipPath id="id5"><path d="M 221.011719 151.085938 L 279.308594 165.273438 L 265.125 223.570312 L 206.828125 209.386719 Z M 221.011719 151.085938 " clip-rule="nonzero"/></clipPath><clipPath id="id6"><path d="M 221.011719 151.085938 L 279.308594 165.273438 L 265.125 223.570312 L 206.828125 209.386719 Z M 221.011719 151.085938 " clip-rule="nonzero"/></clipPath><clipPath id="id7"><path d="M 256 174 L 259 174 L 259 177 L 256 177 Z M 256 174 " clip-rule="nonzero"/></clipPath><clipPath id="id8"><path d="M 221.011719 151.085938 L 279.308594 165.273438 L 265.125 223.570312 L 206.828125 209.386719 Z M 221.011719 151.085938 " clip-rule="nonzero"/></clipPath><clipPath id="id9"><path d="M 221.011719 151.085938 L 279.308594 165.273438 L 265.125 223.570312 L 206.828125 209.386719 Z M 221.011719 151.085938 " clip-rule="nonzero"/></clipPath><clipPath id="id10"><path d="M 231 200 L 247 200 L 247 206 L 231 206 Z M 231 200 " clip-rule="nonzero"/></clipPath><clipPath id="id11"><path d="M 221.011719 151.085938 L 279.308594 165.273438 L 265.125 223.570312 L 206.828125 209.386719 Z M 221.011719 151.085938 " clip-rule="nonzero"/></clipPath><clipPath id="id12"><path d="M 221.011719 151.085938 L 279.308594 165.273438 L 265.125 223.570312 L 206.828125 209.386719 Z M 221.011719 151.085938 " clip-rule="nonzero"/></clipPath><clipPath id="id13"><path d="M 230 204 L 246 204 L 246 210 L 230 210 Z M 230 204 " clip-rule="nonzero"/></clipPath><clipPath id="id14"><path d="M 221.011719 151.085938 L 279.308594 165.273438 L 265.125 223.570312 L 206.828125 209.386719 Z M 221.011719 151.085938 " clip-rule="nonzero"/></clipPath><clipPath id="id15"><path d="M 221.011719 151.085938 L 279.308594 165.273438 L 265.125 223.570312 L 206.828125 209.386719 Z M 221.011719 151.085938 " clip-rule="nonzero"/></clipPath><clipPath id="id16"><path d="M 229 208 L 245 208 L 245 217 L 229 217 Z M 229 208 " clip-rule="nonzero"/></clipPath><clipPath id="id17"><path d="M 221.011719 151.085938 L 279.308594 165.273438 L 265.125 223.570312 L 206.828125 209.386719 Z M 221.011719 151.085938 " clip-rule="nonzero"/></clipPath><clipPath id="id18"><path d="M 221.011719 151.085938 L 279.308594 165.273438 L 265.125 223.570312 L 206.828125 209.386719 Z M 221.011719 151.085938 " clip-rule="nonzero"/></clipPath><clipPath id="id19"><path d="M 267 177 L 276 177 L 276 181 L 267 181 Z M 267 177 " clip-rule="nonzero"/></clipPath><clipPath id="id20"><path d="M 221.011719 151.085938 L 279.308594 165.273438 L 265.125 223.570312 L 206.828125 209.386719 Z M 221.011719 151.085938 " clip-rule="nonzero"/></clipPath><clipPath id="id21"><path d="M 221.011719 151.085938 L 279.308594 165.273438 L 265.125 223.570312 L 206.828125 209.386719 Z M 221.011719 151.085938 " clip-rule="nonzero"/></clipPath><clipPath id="id22"><path d="M 265 183 L 274 183 L 274 191 L 265 191 Z M 265 183 " clip-rule="nonzero"/></clipPath><clipPath id="id23"><path d="M 221.011719 151.085938 L 279.308594 165.273438 L 265.125 223.570312 L 206.828125 209.386719 Z M 221.011719 151.085938 " clip-rule="nonzero"/></clipPath><clipPath id="id24"><path d="M 221.011719 151.085938 L 279.308594 165.273438 L 265.125 223.570312 L 206.828125 209.386719 Z M 221.011719 151.085938 " clip-rule="nonzero"/></clipPath><clipPath id="id25"><path d="M 268 169 L 278 169 L 278 174 L 268 174 Z M 268 169 " clip-rule="nonzero"/></clipPath><clipPath id="id26"><path d="M 221.011719 151.085938 L 279.308594 165.273438 L 265.125 223.570312 L 206.828125 209.386719 Z M 221.011719 151.085938 " clip-rule="nonzero"/></clipPath><clipPath id="id27"><path d="M 221.011719 151.085938 L 279.308594 165.273438 L 265.125 223.570312 L 206.828125 209.386719 Z M 221.011719 151.085938 " clip-rule="nonzero"/></clipPath><clipPath id="id28"><path d="M 217 165 L 226 165 L 226 169 L 217 169 Z M 217 165 " clip-rule="nonzero"/></clipPath><clipPath id="id29"><path d="M 221.011719 151.085938 L 279.308594 165.273438 L 265.125 223.570312 L 206.828125 209.386719 Z M 221.011719 151.085938 " clip-rule="nonzero"/></clipPath><clipPath id="id30"><path d="M 221.011719 151.085938 L 279.308594 165.273438 L 265.125 223.570312 L 206.828125 209.386719 Z M 221.011719 151.085938 " clip-rule="nonzero"/></clipPath><clipPath id="id31"><path d="M 215 172 L 225 172 L 225 177 L 215 177 Z M 215 172 " clip-rule="nonzero"/></clipPath><clipPath id="id32"><path d="M 221.011719 151.085938 L 279.308594 165.273438 L 265.125 223.570312 L 206.828125 209.386719 Z M 221.011719 151.085938 " clip-rule="nonzero"/></clipPath><clipPath id="id33"><path d="M 221.011719 151.085938 L 279.308594 165.273438 L 265.125 223.570312 L 206.828125 209.386719 Z M 221.011719 151.085938 " clip-rule="nonzero"/></clipPath><clipPath id="id34"><path d="M 219 155 L 228 155 L 228 163 L 219 163 Z M 219 155 " clip-rule="nonzero"/></clipPath><clipPath id="id35"><path d="M 221.011719 151.085938 L 279.308594 165.273438 L 265.125 223.570312 L 206.828125 209.386719 Z M 221.011719 151.085938 " clip-rule="nonzero"/></clipPath><clipPath id="id36"><path d="M 221.011719 151.085938 L 279.308594 165.273438 L 265.125 223.570312 L 206.828125 209.386719 Z M 221.011719 151.085938 " clip-rule="nonzero"/></clipPath></defs><g clip-path="url(#id1)"><g clip-path="url(#id2)"><g clip-path="url(#id3)"><path fill="#ff914d" d="M 248.167969 179.898438 L 248.421875 178.859375 C 248.558594 178.289062 249.136719 177.9375 249.707031 178.078125 C 250.28125 178.214844 250.632812 178.792969 250.492188 179.363281 C 250.351562 179.9375 249.777344 180.289062 249.203125 180.148438 Z M 256.175781 185.972656 C 253.980469 187.992188 251.933594 190.433594 249.734375 193.667969 L 246.019531 199.121094 L 243.632812 198.542969 L 247.664062 181.96875 L 248.699219 182.21875 C 250.414062 182.636719 252.148438 181.582031 252.5625 179.867188 C 252.980469 178.15625 251.925781 176.421875 250.210938 176.003906 C 248.5 175.589844 246.765625 176.644531 246.347656 178.355469 L 246.097656 179.394531 L 244.023438 178.886719 L 244.277344 177.851562 C 244.695312 176.140625 243.640625 174.40625 241.925781 173.988281 C 240.210938 173.574219 238.480469 174.628906 238.0625 176.339844 C 237.644531 178.054688 238.699219 179.789062 240.414062 180.203125 L 241.449219 180.457031 L 237.417969 197.027344 L 235.027344 196.449219 L 234.230469 189.839844 C 233.855469 186.738281 233.113281 183.539062 231.828125 179.464844 C 231.007812 176.859375 230.921875 174.070312 231.582031 171.40625 C 233.464844 163.808594 241.238281 158.847656 248.914062 160.34375 C 252.976562 161.140625 256.417969 163.484375 258.636719 166.949219 C 260.855469 170.414062 261.542969 174.527344 260.570312 178.527344 C 259.871094 181.402344 258.351562 183.976562 256.175781 185.972656 Z M 239.488281 197.53125 L 243.519531 180.960938 L 245.59375 181.464844 L 241.558594 198.039062 Z M 241.953125 178.382812 L 240.917969 178.132812 C 240.347656 177.992188 239.996094 177.417969 240.132812 176.84375 C 240.273438 176.273438 240.851562 175.921875 241.421875 176.0625 C 241.992188 176.199219 242.34375 176.777344 242.207031 177.347656 Z M 249.320312 158.253906 C 240.550781 156.539062 231.664062 162.210938 229.511719 170.894531 C 228.757812 173.941406 228.855469 177.125 229.796875 180.105469 C 231.039062 184.050781 231.753906 187.128906 232.113281 190.09375 L 233 197.4375 C 233.050781 197.878906 233.375 198.238281 233.804688 198.34375 L 246.234375 201.367188 C 246.667969 201.472656 247.117188 201.300781 247.367188 200.933594 L 251.496094 194.867188 C 253.601562 191.773438 255.546875 189.445312 257.617188 187.542969 C 260.105469 185.261719 261.84375 182.316406 262.640625 179.03125 C 263.753906 174.460938 262.96875 169.761719 260.433594 165.796875 C 257.898438 161.835938 253.957031 159.160156 249.320312 158.253906 " fill-opacity="1" fill-rule="nonzero"/></g></g></g><g clip-path="url(#id4)"><g clip-path="url(#id5)"><g clip-path="url(#id6)"><path fill="#ff914d" d="M 248.507812 162.4375 C 247.132812 162.171875 245.730469 162.136719 244.335938 162.335938 L 244.640625 164.449219 C 245.796875 164.28125 246.960938 164.308594 248.101562 164.53125 C 252.222656 165.34375 255.484375 168.496094 256.441406 172.582031 L 258.515625 172.09375 C 257.367188 167.191406 253.441406 163.414062 248.507812 162.4375 " fill-opacity="1" fill-rule="nonzero"/></g></g></g><g clip-path="url(#id7)"><g clip-path="url(#id8)"><g clip-path="url(#id9)"><path fill="#ff914d" d="M 256.601562 176.613281 L 258.710938 176.929688 C 258.832031 176.132812 258.875 175.316406 258.84375 174.503906 L 256.714844 174.589844 C 256.738281 175.265625 256.703125 175.945312 256.601562 176.613281 " fill-opacity="1" fill-rule="nonzero"/></g></g></g><g clip-path="url(#id10)"><g clip-path="url(#id11)"><g clip-path="url(#id12)"><path fill="#ff914d" d="M 245.730469 203.441406 L 233.300781 200.417969 C 232.730469 200.277344 232.152344 200.628906 232.015625 201.199219 C 231.875 201.773438 232.226562 202.347656 232.796875 202.488281 L 245.226562 205.511719 C 245.800781 205.652344 246.375 205.300781 246.515625 204.730469 C 246.652344 204.15625 246.304688 203.578125 245.730469 203.441406 " fill-opacity="1" fill-rule="nonzero"/></g></g></g><g clip-path="url(#id13)"><g clip-path="url(#id14)"><g clip-path="url(#id15)"><path fill="#ff914d" d="M 244.722656 207.585938 L 232.292969 204.558594 C 231.722656 204.421875 231.144531 204.769531 231.003906 205.34375 C 230.867188 205.917969 231.21875 206.492188 231.789062 206.632812 L 244.21875 209.65625 C 244.792969 209.796875 245.367188 209.445312 245.507812 208.871094 C 245.644531 208.300781 245.296875 207.722656 244.722656 207.585938 " fill-opacity="1" fill-rule="nonzero"/></g></g></g><g clip-path="url(#id16)"><g clip-path="url(#id17)"><g clip-path="url(#id18)"><path fill="#ff914d" d="M 236.492188 214.359375 C 235.144531 214.03125 234.214844 212.882812 234.078125 211.578125 L 239.914062 212.996094 C 239.191406 214.09375 237.839844 214.6875 236.492188 214.359375 Z M 243.714844 211.726562 L 231.285156 208.703125 C 230.710938 208.5625 230.136719 208.914062 229.996094 209.488281 C 229.859375 210.058594 230.207031 210.636719 230.78125 210.773438 L 231.921875 211.050781 C 231.828125 213.53125 233.488281 215.820312 235.988281 216.429688 C 238.488281 217.039062 241.015625 215.765625 242.070312 213.523438 L 243.210938 213.800781 C 243.785156 213.9375 244.359375 213.589844 244.5 213.015625 C 244.636719 212.441406 244.289062 211.867188 243.714844 211.726562 " fill-opacity="1" fill-rule="nonzero"/></g></g></g><g clip-path="url(#id19)"><g clip-path="url(#id20)"><g clip-path="url(#id21)"><path fill="#ff914d" d="M 274.792969 178.695312 L 268.578125 177.183594 C 268.003906 177.042969 267.429688 177.394531 267.289062 177.964844 C 267.152344 178.539062 267.5 179.113281 268.074219 179.253906 L 274.289062 180.765625 C 274.859375 180.90625 275.4375 180.554688 275.578125 179.984375 C 275.714844 179.410156 275.363281 178.832031 274.792969 178.695312 " fill-opacity="1" fill-rule="nonzero"/></g></g></g><g clip-path="url(#id22)"><g clip-path="url(#id23)"><g clip-path="url(#id24)"><path fill="#ff914d" d="M 272.960938 188.238281 L 267.503906 183.621094 C 267.050781 183.242188 266.378906 183.292969 266 183.746094 C 265.617188 184.195312 265.675781 184.867188 266.125 185.246094 L 271.582031 189.867188 C 271.714844 189.976562 271.863281 190.050781 272.019531 190.089844 C 272.398438 190.179688 272.816406 190.058594 273.085938 189.742188 C 273.464844 189.292969 273.410156 188.621094 272.960938 188.238281 " fill-opacity="1" fill-rule="nonzero"/></g></g></g><g clip-path="url(#id25)"><g clip-path="url(#id26)"><g clip-path="url(#id27)"><path fill="#ff914d" d="M 268.796875 172.242188 C 268.890625 172.648438 269.207031 172.945312 269.585938 173.039062 C 269.742188 173.078125 269.910156 173.078125 270.074219 173.042969 L 277.046875 171.445312 C 277.621094 171.316406 277.980469 170.746094 277.847656 170.171875 C 277.714844 169.597656 277.144531 169.238281 276.570312 169.367188 L 269.601562 170.964844 C 269.027344 171.09375 268.667969 171.667969 268.796875 172.242188 " fill-opacity="1" fill-rule="nonzero"/></g></g></g><g clip-path="url(#id28)"><g clip-path="url(#id29)"><g clip-path="url(#id30)"><path fill="#ff914d" d="M 225.074219 166.597656 L 218.859375 165.085938 C 218.285156 164.945312 217.710938 165.296875 217.570312 165.867188 C 217.429688 166.441406 217.78125 167.015625 218.355469 167.15625 L 224.570312 168.667969 C 225.140625 168.808594 225.71875 168.457031 225.855469 167.886719 C 225.996094 167.3125 225.644531 166.738281 225.074219 166.597656 " fill-opacity="1" fill-rule="nonzero"/></g></g></g><g clip-path="url(#id31)"><g clip-path="url(#id32)"><g clip-path="url(#id33)"><path fill="#ff914d" d="M 223.070312 172.808594 L 216.097656 174.402344 C 215.527344 174.535156 215.167969 175.105469 215.296875 175.679688 C 215.390625 176.089844 215.707031 176.386719 216.085938 176.480469 C 216.242188 176.515625 216.410156 176.519531 216.574219 176.484375 L 223.546875 174.886719 C 224.121094 174.757812 224.480469 174.183594 224.347656 173.609375 C 224.214844 173.035156 223.644531 172.679688 223.070312 172.808594 " fill-opacity="1" fill-rule="nonzero"/></g></g></g><g clip-path="url(#id34)"><g clip-path="url(#id35)"><g clip-path="url(#id36)"><path fill="#ff914d" d="M 225.644531 162.230469 C 225.773438 162.339844 225.925781 162.414062 226.078125 162.453125 C 226.460938 162.546875 226.875 162.425781 227.148438 162.105469 C 227.527344 161.65625 227.472656 160.984375 227.023438 160.605469 L 221.5625 155.984375 C 221.113281 155.605469 220.441406 155.660156 220.058594 156.109375 C 219.679688 156.558594 219.734375 157.230469 220.183594 157.613281 L 225.644531 162.230469 " fill-opacity="1" fill-rule="nonzero"/></g></g></g><g fill="#229bdf" fill-opacity="1"><g transform="translate(118.828122, 201.373156)"><g><path d="M 21.71875 -21.859375 C 22.363281 -20.546875 22.6875 -19.078125 22.6875 -17.453125 C 22.6875 -15.835938 22.363281 -14.375 21.71875 -13.0625 C 21.070312 -11.75 20.234375 -10.707031 19.203125 -9.9375 C 17.140625 -8.34375 15 -7.546875 12.78125 -7.546875 L 8.109375 -7.546875 L 8.109375 -3.328125 C 8.109375 -2.753906 8.085938 -2.320312 8.046875 -2.03125 C 8.015625 -1.75 7.898438 -1.421875 7.703125 -1.046875 C 7.347656 -0.367188 6.375 -0.03125 4.78125 -0.03125 C 3.039062 -0.03125 2.019531 -0.492188 1.71875 -1.421875 C 1.570312 -1.847656 1.5 -2.492188 1.5 -3.359375 L 1.5 -24.109375 C 1.5 -24.679688 1.515625 -25.109375 1.546875 -25.390625 C 1.585938 -25.679688 1.707031 -26.015625 1.90625 -26.390625 C 2.25 -27.054688 3.222656 -27.390625 4.828125 -27.390625 L 12.8125 -27.390625 C 15.007812 -27.390625 17.140625 -26.59375 19.203125 -25 C 20.234375 -24.226562 21.070312 -23.179688 21.71875 -21.859375 Z M 12.8125 -14.171875 C 13.5625 -14.171875 14.296875 -14.441406 15.015625 -14.984375 C 15.742188 -15.535156 16.109375 -16.359375 16.109375 -17.453125 C 16.109375 -18.546875 15.742188 -19.375 15.015625 -19.9375 C 14.296875 -20.5 13.550781 -20.78125 12.78125 -20.78125 L 8.109375 -20.78125 L 8.109375 -14.171875 Z M 12.8125 -14.171875 "/></g></g></g><g fill="#229bdf" fill-opacity="1"><g transform="translate(142.44662, 201.373156)"><g><path d="M 14.875 -19.46875 C 15.34375 -19.320312 15.734375 -19.066406 16.046875 -18.703125 C 16.359375 -18.347656 16.515625 -17.769531 16.515625 -16.96875 C 16.515625 -16.164062 16.273438 -15.289062 15.796875 -14.34375 C 15.328125 -13.40625 14.644531 -12.9375 13.75 -12.9375 C 13.300781 -12.9375 12.867188 -13.035156 12.453125 -13.234375 C 12.046875 -13.429688 11.503906 -13.53125 10.828125 -13.53125 C 10.160156 -13.53125 9.535156 -13.289062 8.953125 -12.8125 C 8.367188 -12.34375 8.078125 -11.769531 8.078125 -11.09375 L 8.078125 -3.25 C 8.078125 -2.675781 8.054688 -2.242188 8.015625 -1.953125 C 7.972656 -1.671875 7.851562 -1.34375 7.65625 -0.96875 C 7.28125 -0.320312 6.3125 0 4.75 0 C 3.550781 0 2.691406 -0.210938 2.171875 -0.640625 C 1.765625 -0.984375 1.539062 -1.519531 1.5 -2.25 C 1.5 -2.488281 1.5 -2.847656 1.5 -3.328125 L 1.5 -16.4375 C 1.5 -17.007812 1.515625 -17.441406 1.546875 -17.734375 C 1.585938 -18.023438 1.695312 -18.34375 1.875 -18.6875 C 2.21875 -19.363281 3.1875 -19.703125 4.78125 -19.703125 C 6.28125 -19.703125 7.21875 -19.414062 7.59375 -18.84375 C 7.863281 -18.4375 8 -18.023438 8 -17.609375 C 8.125 -17.773438 8.300781 -17.984375 8.53125 -18.234375 C 8.769531 -18.484375 9.273438 -18.820312 10.046875 -19.25 C 10.828125 -19.675781 11.507812 -19.890625 12.09375 -19.890625 C 12.675781 -19.890625 13.164062 -19.859375 13.5625 -19.796875 C 13.96875 -19.734375 14.40625 -19.625 14.875 -19.46875 Z M 14.875 -19.46875 "/></g></g></g><g fill="#229bdf" fill-opacity="1"><g transform="translate(159.525186, 201.373156)"><g><path d="M 0.9375 -9.828125 C 0.9375 -12.816406 1.984375 -15.28125 4.078125 -17.21875 C 6.171875 -19.164062 8.5625 -20.140625 11.25 -20.140625 C 13.9375 -20.140625 16.3125 -19.175781 18.375 -17.25 C 20.445312 -15.320312 21.484375 -12.859375 21.484375 -9.859375 C 21.484375 -7.796875 20.945312 -5.957031 19.875 -4.34375 C 18.8125 -2.738281 17.507812 -1.554688 15.96875 -0.796875 C 14.4375 -0.0351562 12.847656 0.34375 11.203125 0.34375 C 9.566406 0.34375 7.972656 -0.0625 6.421875 -0.875 C 4.878906 -1.6875 3.578125 -2.882812 2.515625 -4.46875 C 1.460938 -6.050781 0.9375 -7.835938 0.9375 -9.828125 Z M 8.734375 -7.15625 C 9.535156 -6.539062 10.347656 -6.234375 11.171875 -6.234375 C 11.992188 -6.234375 12.816406 -6.546875 13.640625 -7.171875 C 14.460938 -7.796875 14.875 -8.71875 14.875 -9.9375 C 14.875 -11.15625 14.488281 -12.0625 13.71875 -12.65625 C 12.945312 -13.257812 12.109375 -13.5625 11.203125 -13.5625 C 10.304688 -13.5625 9.472656 -13.25 8.703125 -12.625 C 7.929688 -12.007812 7.546875 -11.097656 7.546875 -9.890625 C 7.546875 -8.679688 7.941406 -7.769531 8.734375 -7.15625 Z M 8.734375 -7.15625 "/></g></g></g><g fill="#229bdf" fill-opacity="1"><g transform="translate(181.947811, 201.373156)"><g><path d="M 6.515625 -22.625 C 6.054688 -22.488281 5.441406 -22.421875 4.671875 -22.421875 C 3.898438 -22.421875 3.289062 -22.492188 2.84375 -22.640625 C 2.394531 -22.796875 2.078125 -23.050781 1.890625 -23.40625 C 1.703125 -23.769531 1.585938 -24.09375 1.546875 -24.375 C 1.515625 -24.664062 1.5 -25.097656 1.5 -25.671875 C 1.5 -26.242188 1.515625 -26.664062 1.546875 -26.9375 C 1.585938 -27.21875 1.695312 -27.53125 1.875 -27.875 C 2.21875 -28.53125 3.175781 -28.859375 4.75 -28.859375 C 6.238281 -28.859375 7.171875 -28.53125 7.546875 -27.875 C 7.722656 -27.550781 7.828125 -27.253906 7.859375 -26.984375 C 7.898438 -26.710938 7.921875 -26.300781 7.921875 -25.75 L 7.921875 -25.53125 C 7.921875 -24.976562 7.898438 -24.5625 7.859375 -24.28125 C 7.828125 -24.007812 7.710938 -23.703125 7.515625 -23.359375 C 7.316406 -23.015625 6.984375 -22.769531 6.515625 -22.625 Z M 2.890625 -19.578125 C 3.359375 -19.734375 3.976562 -19.8125 4.75 -19.8125 C 5.519531 -19.8125 6.128906 -19.734375 6.578125 -19.578125 C 7.023438 -19.429688 7.34375 -19.175781 7.53125 -18.8125 C 7.71875 -18.457031 7.828125 -18.132812 7.859375 -17.84375 C 7.898438 -17.5625 7.921875 -17.132812 7.921875 -16.5625 L 7.921875 -1.15625 C 7.921875 1.757812 6.910156 4.085938 4.890625 5.828125 C 2.878906 7.578125 0.664062 8.453125 -1.75 8.453125 C -2.320312 8.453125 -2.742188 8.429688 -3.015625 8.390625 C -3.296875 8.347656 -3.613281 8.242188 -3.96875 8.078125 C -4.613281 7.722656 -4.9375 6.8125 -4.9375 5.34375 C -4.9375 3.875 -4.664062 2.953125 -4.125 2.578125 C -3.59375 2.203125 -2.867188 2.015625 -1.953125 2.015625 C -1.046875 2.015625 -0.242188 1.765625 0.453125 1.265625 C 1.148438 0.765625 1.5 -0.128906 1.5 -1.421875 L 1.5 -16.8125 C 1.5 -17.6875 1.613281 -18.328125 1.84375 -18.734375 C 2.082031 -19.148438 2.429688 -19.429688 2.890625 -19.578125 Z M 2.890625 -19.578125 "/></g></g></g><g fill="#229bdf" fill-opacity="1"><g transform="translate(191.365314, 201.373156)"><g><path d="M 0.9375 -9.828125 C 0.9375 -12.816406 1.984375 -15.28125 4.078125 -17.21875 C 6.171875 -19.164062 8.5625 -20.140625 11.25 -20.140625 C 13.9375 -20.140625 16.3125 -19.175781 18.375 -17.25 C 20.445312 -15.320312 21.484375 -12.859375 21.484375 -9.859375 C 21.484375 -7.796875 20.945312 -5.957031 19.875 -4.34375 C 18.8125 -2.738281 17.507812 -1.554688 15.96875 -0.796875 C 14.4375 -0.0351562 12.847656 0.34375 11.203125 0.34375 C 9.566406 0.34375 7.972656 -0.0625 6.421875 -0.875 C 4.878906 -1.6875 3.578125 -2.882812 2.515625 -4.46875 C 1.460938 -6.050781 0.9375 -7.835938 0.9375 -9.828125 Z M 8.734375 -7.15625 C 9.535156 -6.539062 10.347656 -6.234375 11.171875 -6.234375 C 11.992188 -6.234375 12.816406 -6.546875 13.640625 -7.171875 C 14.460938 -7.796875 14.875 -8.71875 14.875 -9.9375 C 14.875 -11.15625 14.488281 -12.0625 13.71875 -12.65625 C 12.945312 -13.257812 12.109375 -13.5625 11.203125 -13.5625 C 10.304688 -13.5625 9.472656 -13.25 8.703125 -12.625 C 7.929688 -12.007812 7.546875 -11.097656 7.546875 -9.890625 C 7.546875 -8.679688 7.941406 -7.769531 8.734375 -7.15625 Z M 8.734375 -7.15625 "/></g></g></g></svg>